<svg id="Layer_1" data-name="Layer 1" xmlns="http://www.w3.org/2000/svg" viewBox="0 0 118.33 145.47"><defs><style>.cls-1{fill:#ff8000;}</style></defs><title>SkipTheDishes_logo</title><path class="cls-1" d="M56.62,1.54a5.25,5.25,0,0,1,5.81,0,128.66,128.66,0,0,1,12.8,9.24s1.11.77,1.14-.54c0,0-.18-3.86.29-5a2.28,2.28,0,0,1,2.18-1.58s5,.25,8.24.68a3.17,3.17,0,0,1,2.64,2.84S91.78,21,92.23,25.89c0,0,.4,2.52,4,6.79,0,0,7.36,10.33,8.27,12.37,0,0,1.73,3.6-2,4.07,0,0-6.77.68-7.41.84a1.68,1.68,0,0,0-1.52,1.83h0s-.34,23.87-2.09,35.35c0,0-.45,4.55-3,4.44,0,0-7-.23-8.56-.18,0,0-.71,0-.6-.93,0,0,3.54-37.24,1.13-56.08,0,0-.09-2.43-2-2.93,0,0-1.68-.68-3.3,1.55a59.09,59.09,0,0,0-11,33.6s-.2,6,.71,7.48c0,0,.56,1,3.44,1.28l3.65.49s.68,0,.62.89c0,0-.84,10.92-1.08,12.86a3.75,3.75,0,0,1-.26,1.29s-.13.37-1.28.33c0,0-16.06-.12-17.87,0,0,0-.76.08-.92-.39s-1.12-14.11-1.08-16a1,1,0,0,1,.56-1,9.67,9.67,0,0,0,4.46-7.09,39.49,39.49,0,0,0,.13-6.25s.59-21,.74-24.31c0,0,.13-1.13-1.36-1.35a1.38,1.38,0,0,0-1.66,1V36s-1,13.82-.84,19.32c0,0,.35,3.58-2.12,3.65,0,0-2.41.36-2.52-2.61,0,0,.18-13.44.76-20.08a1.42,1.42,0,0,0-1.32-1.45A1.46,1.46,0,0,0,45.23,36v.12s-1,12.85-.84,19.64c0,0,.3,3.29-2.33,3.17,0,0-2.19.26-2.32-2.66,0,0,.6-18.4.76-19.83a1.49,1.49,0,0,0-1.27-1.67H39A1.4,1.4,0,0,0,37.45,36v.18s-1,22-.84,28.46c0,0-.09,6.65,4.81,9.34,0,0,.72.42.74,1,0,0,.55,11.68,1,15.44,0,0,.18.9-.62.9l-12.31.39a2.52,2.52,0,0,1-2.52-2.39A274.71,274.71,0,0,1,25.58,52a1.86,1.86,0,0,0-1.5-2s-6.32-.59-7.85-1a2.62,2.62,0,0,1-1.93-3.16v0a2.44,2.44,0,0,1,.28-.67A126.82,126.82,0,0,1,56.62,1.54Z" transform="translate(-0.4 -0.67)"/><path class="cls-1" d="M86.15,97.6a1.19,1.19,0,0,0-1-.51H74.27L60.92,142.25l-5-21.94L71.41,99.16a1.65,1.65,0,0,0,.23-.46l.27-.93a.54.54,0,0,0-.35-.67H60.39L48.47,114.44l5.06-15.72a1.27,1.27,0,0,0-.85-1.58,1,1,0,0,0-.37,0H41.38L31.92,129.2c.21-5.51-4.07-9.86-6.56-12.61-2-2.24-3.23-3.83-3-5.6a5,5,0,0,1,4.79-4.4c2.72-.22,3.89.62,5.62,1.43a1.76,1.76,0,0,0,.64.15,1.91,1.91,0,0,0,.52-.1,1.31,1.31,0,0,0,.77-.82l2.54-8.59-1.76-.82-.26-.12h-.08a16,16,0,0,0-6.62-1.3c-9.57,0-18.28,6.85-19.72,15.28-1,5.9,2.77,10.06,5.53,13.1l.24.27c2,2.14,3.38,3.8,3,5.72-.46,2.7-3.08,4.24-5.61,4.45-2.78.23-4.52-.55-6.69-1.51A1.8,1.8,0,0,0,4,133.5a1.32,1.32,0,0,0-.89.87l-2.41,8.3h0L.4,143.73a25.7,25.7,0,0,0,10.31,2.41c8.16,0,15.21-3.13,19.4-10.69l-2.47,8.42a1.25,1.25,0,0,0,.85,1.56h0a1,1,0,0,0,.36.06H39.79l2.73-9.27,3.32-4.79,2.56,13a1.28,1.28,0,0,0,1.25,1h23L86.4,98.7a1.28,1.28,0,0,0-.2-1.12Z" transform="translate(-0.4 -0.67)"/><path class="cls-1" d="M100.46,107.54h4.08a2,2,0,0,1,1.5.59,3.46,3.46,0,0,1,.81,2.78,23.16,23.16,0,0,1-2,7.42c-1.35,3-2.6,5.25-6.16,5.66H95.6Zm-7.88,26.82h4.75c11.46.15,17.26-7.9,19.85-16.64a29.75,29.75,0,0,0,1.53-7.86,12.91,12.91,0,0,0-3.16-9.13,11.14,11.14,0,0,0-8.36-3.64H89.12l-.77,2.56a.87.87,0,0,0,.1.7l.51.81a3.16,3.16,0,0,1,.36,2.66l-11.74,40a1.25,1.25,0,0,0,.19,1.12,1.32,1.32,0,0,0,1,.52H89.29l3.28-11.1Z" transform="translate(-0.4 -0.67)"/></svg>